# xmcd
#
# Track frame offsets:
# 150
# 16513
# 29892
# 38149
# 43472
# 53508
# 63160
# 75263
# 83388
# 95853
# 105335
# 122937
# 139320
# 146699
# 158876
#
# Disc length: 2284 seconds
#
#
# Revision: 1
# Processed by: cddbd v1.5.2PL0 Copyright (c) Steve Scherf et al.
# Submitted via: FreeRIP 2.60 
#
DISCID=c008ea0f
DTITLE=Johnny Cash - I Walk the Line [CD3]
DYEAR=2006
DGENRE=Country
TTITLE0=The Baron
TTITLE1=Don't take your guns to town
TTITLE2=The Wall
TTITLE3=Cry cry cry
TTITLE4=Goodbye little darlin'
TTITLE5=Help me
TTITLE6=Sixteen tons
TTITLE7=Get Rhythm
TTITLE8=Jackson
TTITLE9=If I were a carpenter
TTITLE10=Prange blossom special
TTITLE11=Sunday morning coming down
TTITLE12=Casey Jones
TTITLE13=Peace in the valley
TTITLE14=I walk the line
EXTD=
EXTT0=
EXTT1=
EXTT2=
EXTT3=
EXTT4=
EXTT5=
EXTT6=
EXTT7=
EXTT8=
EXTT9=
EXTT10=
EXTT11=
EXTT12=
EXTT13=
EXTT14=
PLAYORDER=
